<?xml version="1.0" encoding="UTF-8"?>
<svg id="Layer_1" data-name="Layer 1" xmlns="http://www.w3.org/2000/svg" viewBox="0 0 1915.82 455.7">
  <defs>
    <style>
      .cls-1 {
        fill: #0b0b0b;
        stroke-width: 0px;
      }
    </style>
  </defs>
  <path class="cls-1" d="m1865.51,377.1c-35.24-64.77-69.86-128.38-104.47-192-.77.13-1.53.27-2.3.4v157.77h-19.83V126.18c8.26-4.69,11.69.57,14.99,6.53,34.49,62.27,69.03,124.5,103.52,186.77,8.99,16.23,18.65,32.16,26.47,48.95,3.95,8.49,4.48,18.58,6.9,29.54H687.7c30.69-88.03,60.91-174.72,91.13-261.42,1.18-.03,2.35-.07,3.53-.1,23.95,68.58,47.89,137.16,72.28,207.01h-22.09c-17-48.33-34.03-96.71-51.96-147.66-21.64,61.78-42.37,120.94-63.53,181.32h1148.44v-.02Z"/>
  <path class="cls-1" d="m1713.17,29.85v19.64H20.09v293.95H0V29.85h1713.17Z"/>
  <path class="cls-1" d="m156.74,276.79V124.62h19.99v218.79c-3,.19-5.59.36-8.96.57-12.89-23.15-25.77-46.05-38.43-69.05-33.26-60.41-66.92-120.61-99.11-181.58-5.17-9.79-3.59-23.14-5.24-35.75h1003.58v19.82H45.56c37.02,68.36,72.63,134.14,108.25,199.92.98-.18,1.95-.36,2.93-.54h0Z"/>
  <path class="cls-1" d="m1895.87,406.44V125.11h19.95v301.27H832.98v-19.95h1062.89Z"/>
  <path class="cls-1" d="m753.35,124.91h22.49c-32.15,91.88-63.79,182.29-95.63,273.29H202.3v-20.13h462.46c29.64-84.69,59.03-168.7,88.59-253.16h0Z"/>
  <path class="cls-1" d="m1651.27,347.35c-8.17-7.05-14.78-12.76-19.63-16.94-18.36,6.15-34.6,13.91-51.68,16.91-84.48,14.8-155.23-67.59-126.26-148.52,8.59-24.01,12.45-47.8,15.12-72.43.31-2.87,1.07-5.69,1.97-10.35,10.73,7.57,20.11,14.17,24.9,17.55,25.4-5.03,46.49-12.45,67.69-12.81,77.05-1.3,131.89,76.02,108.21,149.43-6.94,21.51-11.67,43.73-17.4,65.62-.82,3.14-1.59,6.29-2.92,11.55h0Zm4.12-112.77c-.02-52.09-41.25-93.44-93.18-93.45-52.1-.02-94.14,42-93.96,93.91.18,51.48,42.2,93.06,94.01,93.02,51.9-.03,93.16-41.45,93.14-93.48h-.01Z"/>
  <path class="cls-1" d="m459.31,350.33c5.23-11.32,9.46-20.47,13.89-30.06-3.31-3.67-6.46-7.1-9.52-10.59-31.84-36.36-36.99-88.8-12.98-131.78,23.01-41.19,70.68-63.17,117.57-57.29,14.75,1.85,30.44-3.73,45.69-5.97,5.08-.75,10.13-1.68,17.46-2.91-4,11.57-7.37,21.29-10.85,31.35,20.15,16.6,34.29,36.74,40.95,61.59,21.64,80.77-46.8,155.66-129.56,143.46-19.3-2.85-39.57.85-59.4,1.56-3.51.12-7.01.34-13.25.65h0Zm-2.04-115.6c.02,52.09,41.24,93.35,93.24,93.33,51.77-.02,93.79-41.7,93.91-93.16.11-51.86-41.99-93.81-94.13-93.77-51.89.04-93.05,41.45-93.02,93.6Z"/>
  <path class="cls-1" d="m1868.14,282.35V125.1h20v218.22c-3.09.21-5.66.39-9.06.63-40.14-72.54-80.13-144.82-121.11-218.88h24.65c27.7,50.94,55.66,102.35,85.52,157.27h0Z"/>
  <path class="cls-1" d="m159.09,343.66h-23.16c-29-53.22-58.07-106.55-89.07-163.43v163.06h-19.63V126.18c9.06-4.81,12.26,1.32,15.58,7.31,34.9,62.97,69.82,125.93,104.73,188.9,3.57,6.43,7.03,12.92,11.56,21.27h0Z"/>
  <path class="cls-1" d="m1200,253.04h-94.5v90.38h-20.77v-111.17h134.94v110.96h-19.67v-90.18h0Z"/>
  <path class="cls-1" d="m1339.93,125.3v169.66h107.43v21.16h-128.53V125.3h21.1Z"/>
  <path class="cls-1" d="m1084.32,223.2v-97.9h20.69v77.19h94.25v-77.21h20.55v97.93h-135.49Z"/>
  <path class="cls-1" d="m417.72,153.12v20.03h-117.55v34h95.26v20.73h-116.3v-74.76h138.6-.01Z"/>
  <path class="cls-1" d="m279.29,236.15h105.16v20.08h-84.26v39.07h105.08v20.46h-125.97v-79.62h-.01Z"/>
  <path class="cls-1" d="m940.15,343.6h-19.29v-170.13h-82.31v-20.73h101.61v190.86h-.01Z"/>
  <path class="cls-1" d="m1247.81,343.49h-19.25V82.76h19.25v260.73h0Z"/>
  <path class="cls-1" d="m949.34,153h79.51v19.63h-59.27v170.83h-20.23v-190.46h-.01Z"/>
  <path class="cls-1" d="m1076.84,125.21v244.74h-19.34V125.21h19.34Z"/>
  <path class="cls-1" d="m785.25,124.52h22.62c25.3,72.44,50.66,145.07,76.46,218.93h-22.29c-25.33-72.21-50.72-144.62-76.78-218.93h-.01Z"/>
  <path class="cls-1" d="m1311.3,355.24h-19.33V125.29h19.33v229.95Z"/>
  <path class="cls-1" d="m185.13,124.67h19.06v218.65h-19.06V124.67Z"/>
  <path class="cls-1" d="m1730.36,343.36h-19.18V125.23h19.18v218.13Z"/>
  <path class="cls-1" d="m1047.17,144.86h-185.94v-19.95h185.94v19.95Z"/>
  <path class="cls-1" d="m53.56,395.65c46.07-15.3,92.13-30.6,139.72-46.4v48.64H54.03c-.15-.75-.31-1.49-.46-2.24h0Z"/>
  <path class="cls-1" d="m232.73,144.83v-19.53h167.74v19.53h-167.74Z"/>
  <path class="cls-1" d="m823.84,407.65v48.05c-46.69-15.53-91.95-30.59-137.22-45.64l.52-2.41h136.7Z"/>
  <path class="cls-1" d="m1036.67,104.15v-47.79h135.94c.22.78.44,1.56.66,2.33-44.99,14.97-89.97,29.94-136.6,45.45h0Z"/>
  <path class="cls-1" d="m262.92,343.4v-19.31h173.35v19.31h-173.35Z"/>
  <path class="cls-1" d="m1720.51,47.13V0c46.41,15.31,91.61,30.21,136.8,45.11-.1.67-.2,1.35-.3,2.02h-136.5Z"/>
  <path class="cls-1" d="m270.62,315.3h-18.91v-162.33h18.91v162.33Z"/>
  <path class="cls-1" d="m1430.78,343.55h-111.91v-19.26h111.91v19.26Z"/>
  <path class="cls-1" d="m1562.19,320.93c-48.38.04-87.3-38.19-87.33-85.8-.04-48.07,39.38-87.78,87.01-87.67,47.91.12,87.39,39.61,87.35,87.38-.05,47.89-38.62,86.05-87.02,86.09h-.01Zm65.2-85.82c.13-36.99-28.59-65.91-65.53-65.95-36.6-.05-65.56,28.56-65.78,64.96-.22,36.59,28.38,65.65,64.8,65.85,37.42.2,66.38-28.04,66.51-64.86Z"/>
  <path class="cls-1" d="m550.75,320.93c-48.53.05-87.26-38.01-87.31-85.78-.04-48.04,39.45-87.82,87.01-87.63,48.05.19,87.71,39.78,87.46,87.31-.25,47.85-38.92,86.06-87.16,86.11h0Zm-.11-20.97c36.43-.09,65.62-29.08,65.7-65.25.08-36.32-29.55-65.64-66.26-65.56-36.29.07-65.68,29.25-65.77,65.3-.1,36.47,29.4,65.6,66.34,65.51h-.01Z"/>
</svg>