<?xml version="1.0" encoding="UTF-8"?>
<svg id="Layer_1" data-name="Layer 1" xmlns="http://www.w3.org/2000/svg" viewBox="0 0 2970 1778">
  <defs>
    <style>
      .cls-1 {
        fill: #e92864;
      }

      .cls-1, .cls-2, .cls-3 {
        stroke-width: 0px;
      }

      .cls-2 {
        fill: #534f53;
      }

      .cls-3 {
        fill: #d1c7c1;
      }
    </style>
  </defs>
  <path class="cls-1" d="m1807.77,1289.44c-15.41-2.2-30.1-7.43-45.27-10.65-20.7-4.4-41.38-8.85-62.01-13.54-21.54-4.9-43.17-9.53-64.45-15.41-10.47-2.9-20.4-8-30.27-12.74-25.19-12.1-51.57-21.16-77.52-31.32-42.9-16.8-85.77-33.69-128.71-50.39-48.81-18.98-97.71-37.75-146.54-56.69-42.97-16.67-85.86-33.57-128.85-50.17-38.65-14.93-77.45-29.49-116.11-44.4-22.87-8.82-45.54-18.14-68.43-26.89-4.93-1.88-6.49-5.23-7.12-9.71-4.08-29.17-9-58.04-19.03-86.01-12.66-35.33-23.78-71.2-35.74-106.78-16.51-49.12-33.17-98.19-49.79-147.27-.64-1.88-1.46-3.71-2.19-5.56.44-2.39-.57-5.14,1.59-7.65,22.67,19.73,44.05,40.12,67.38,59.09,1.44-3.89.16-5.99-.19-8.24-1.07-6.91-1.58-13.93.25-20.77,1.01-3.77,23.33-17.43,27.24-16.31,6.36,1.82,13.16,1.09,19.32,4.23,8.61,4.39,17.82,6.83,27.65,5.28,14.43-2.28,29-3,43.55-3.91,2.21-.14,4.99.9,6.39-1.56,1.6-2.8-.62-5.13-1.97-7.26-1.22-1.93-2.87-3.86-4.8-5.01-6.12-3.66-10.6-9.07-15.58-13.95-8.04-7.88-15.52-16.38-26.32-20.85-1.99-.83-4.23-2.85-4.89-4.81-3.24-9.59-10.88-12.51-19.7-13.96-3.37-.55-5.49-2.22-5.5-5.88,2.88-2.89,6.59-4.32,10.31-5.65,12.74-4.55,25.75-8.37,38.17-13.83,2.17-.96,4.74-1.87,6.73-.99,6.53,2.91,14.05,3.03,20.06,7.27-.79.6-1.56,1.23-2.37,1.79-6.68,4.62-6.53,4.6-.71,9.56,5.31,4.52,10.28,9.44,15.25,14.33,9.47,9.32,20.16,17.32,29.02,27.28,5.07,5.69,4.72,8.56-2.15,11.94-3.47,1.71-6.01,4.14-7.99,7.22-1.84,2.86-4.07,4.97-7.06,6.75-8.8,5.23-9.36,9.43-2.89,17.38.63.77,1.42,1.4,2.15,2.08,15.61,14.51,29,31.12,43.58,46.6,6.79,7.21,13.67,14.44,20.28,21.87,14.53,16.33,28.91,32.79,43.49,49.07,9.73,10.86,19.84,21.39,29.44,32.36,2.01,2.29,3.85,3.06,6.64,3.36,8.85.96,17.65,2.42,26.5,3.31,9.21.93,18.51,2.31,27.69,1.85,9.49-.48,18.94-2.7,28.31-4.6,7.41-1.5,14.64-1.58,21.2,2.26,7.35,4.31,15.54,6.56,23.14,10.22,2.94,1.41,6.25,2.5,9.48,2.79,16.47,1.51,32.97,2.72,49.46,4.03,1.96,2.26,3.77,4.67,5.9,6.75,30.64,29.97,61.55,59.67,91.61,90.25,19.31,19.64,39.34,38.58,59,57.89,28.25,27.75,56.49,55.51,84.66,83.34,43.11,42.59,86.2,85.21,129.16,127.95,5.16,5.14,11.63,9.7,11.72,18.33.01,1.47,1.18,3.12,2.21,4.35,9.54,11.42,15.94,24.92,24.64,36.97,10.64,14.73,20.74,29.94,30.96,45.02Zm-707.78-325.44c-.62-.51-1.25-1.02-1.87-1.53-.2.35-.4.71-.6,1.06.83.15,1.65.3,2.48.46,1.3,4.03,4.4,4.49,7.97,4.04-.44,3.68.54,6.29,4.39,7.86,7.98,3.25,15.52,7.44,23.54,10.72,16.52,6.75,33.69,11.96,49.48,20.47,1.42.76,3.11,1.32,4.7,1.41,5.81.32,10.87,2.71,16.02,5.12,12.29,5.75,24.44,11.82,37.2,16.5,4.1,1.74,8.21,3.47,12.31,5.21,1.59,2.57,4.05,3.5,6.92,3.66,9.03,4.1,18.07,8.19,27.09,12.32,26.83,12.27,53.68,24.49,80.46,36.87,12.93,5.97,25.3,13.03,38.82,17.9,7.81,2.81,16.01,4,23.67,7.34,11.51,5.02,23.25,9.57,35.12,13.65,13.22,4.54,26.08,9.74,38.38,16.4,10.17,5.51,20.54,10.7,32.25,12.24,10.69,4.97,21.49,9.74,32.06,14.96,20.69,10.22,25.3,11.75,33.94,9.43-12.29-5.83-23.54-11.13-34.75-16.52-2.82-1.36-6.76-1.04-7.82-5.2-1.22-4.8-5.22-6.36-9.31-8.11-19.79-8.45-40.22-15.28-59.64-24.75-10.12-4.93-20.02-10.53-30.61-14.39-15.9-5.79-31.11-12.96-46.13-20.65-8.24-4.22-16.38-9.06-25.15-11.65-7.28-2.15-14.63-4.06-21.74-6.8-3.11-1.2-6.15-2.81-9.28-.12-1.73-1.54-3.82-2.14-6.08-2.27-.45-2.8-1.53-3.89-3.92-1.45-9.47-4.06-18.46-9.22-28.32-12.39-3.42-6.39-9.26-7.03-15.58-6.55-3.08-.89-6.16-1.77-9.24-2.66-.81-2.11-2.11-3.24-4.47-2.23-4.25-.85-8.19-2.4-12.09-4.37-5.31-2.69-10.94-4.76-16.42-7.09-.76-1.79-2.36-1.89-3.97-1.95-4.9-2.72-10.04-4.52-15.75-4.1.56-2.5-1.1-3.98-2.94-4.5-13.95-3.97-25.74-12.93-39.95-16.56-12.36-3.16-23.53-9.81-35.19-15.02-18.98-8.49-38.26-16.2-57.99-22.78-1.92-2.84-4.8-3.74-8.02-3.97Zm561.15,247.11c.14-.27.47-.64.39-.8-7.45-15.14-21.9-19.75-36.48-24.09-1.91-.57-4.15-.11-4.64,2.41-.37,1.88.98,3.02,2.56,3.74,11.95,5.45,23.62,11.41,34.58,18.71,1.06.7,2.39,1.21,3.59.03Z"/>
  <path class="cls-2" d="m1367.91,818.6c-16.49-1.31-32.99-2.52-49.46-4.03-3.23-.3-6.54-1.38-9.48-2.79-7.6-3.65-15.79-5.91-23.14-10.22-6.56-3.85-13.79-3.77-21.2-2.26-9.38,1.9-18.82,4.12-28.31,4.6-9.18.46-18.48-.92-27.69-1.85-8.86-.89-17.65-2.35-26.5-3.31-2.79-.3-4.63-1.07-6.64-3.36-9.6-10.97-19.71-21.5-29.44-32.36-14.58-16.28-28.96-32.74-43.49-49.07-6.61-7.43-13.49-14.66-20.28-21.87-14.58-15.48-27.97-32.09-43.58-46.6-.73-.68-1.53-1.31-2.15-2.08-6.47-7.94-5.91-12.14,2.89-17.38,2.99-1.78,5.22-3.89,7.06-6.75,1.99-3.09,4.53-5.52,7.99-7.22,6.87-3.38,7.21-6.25,2.15-11.94-8.86-9.96-19.56-17.96-29.02-27.28-4.97-4.89-9.94-9.81-15.25-14.33-5.82-4.96-5.97-4.94.71-9.56.81-.56,1.58-1.19,2.37-1.79,3.68-1.41,7.45-2.64,11.03-4.29,5.98-2.76,11.67-6.05,18.41-6.97,2.49-.34,5.29-1.57,7.07-3.3,8.14-7.95,19.86-9.24,28.65-15.82,3.33-2.49,7.92-1.01,11.02-3.9,2.7.89,4.23,3.08,5.88,5.19,15.57,19.9,31.53,39.51,46.66,59.75,11.32,15.14,23.71,29.45,34.37,45.12,8.4,12.35,18.32,23.58,28.16,34.83.99,1.14,2.13,2.71,4.69,1.06-1.54-4.98-5.06-8.9-8.11-13.02-19.17-25.91-37.75-52.25-57.91-77.42-12.25-15.3-23.38-31.47-35.71-46.73-3.45-4.28-8.52-7.69-9.67-13.68,14.57-9.76,30.75-16.45,46.32-24.3,7.27-3.67,14.78-5.51,22.97-5.44,20.3.16,40.69,1.13,60.9-.28,41.87-2.93,83.74-.51,125.59-1.36,3.56-.07,7.34-1.05,10.68,1.22,1.23,6.09,6.44,9.68,9.28,14.76,17.17,30.72,34.35,61.44,51.55,92.15,10.39,18.55,20.79,37.09,31.24,55.6.91,1.62,1.87,3.63,5.02,2.6-1.79-4.84-3.08-9.7-5.79-14.28-4.55-7.7-8.71-15.68-12.37-23.84-6.37-14.2-11.57-29.02-20.04-42.14-10.79-16.71-18.93-34.99-30.84-51.03-3.14-4.23-5.32-9.19-7.99-13.78-1.22-2.1-2.18-4.15-.38-6.4,3.44,3.58,8.27,4.37,12.63,5.5,11,2.85,21.15,7.31,30.58,13.57-.46,3.21.89,6.03,2.66,8.35,8.64,11.33,14.45,24.4,22.54,36.1,16.97,24.56,32.9,49.81,48.51,75.25,1.26,2.05,3.55,4.13,1.49,7.7-3.37-2.56-5.35-5.86-7.32-9.22-1.84-3.14-3.24-7.19-6.03-8.99-7.93-5.15-11.8-13.21-16.65-20.62-1.12-1.71-2.12-3.42-4.58-3,.43-1.24.43-2.4-.82-3.18-.12-.07-.69.25-.75.47-.36,1.45.28,2.3,1.72,2.58,2.41,10.94,9.23,19.51,15.15,28.63,12.53,19.28,29.21,35.68,38.48,57.35,2.34,5.47,7.55,9.79,7.55,16.63,0,1.1,1.09,2.47,2.05,3.26,10.89,9,16.07,21.41,20.65,34.19l.12-.11c-2.91-.42-4.99-1.89-5.67-4.83-.56-2.43-1.84-4.39-3.92-5.56-6.46-3.62-11.19-9.42-17.28-13.43-4.85-3.2-9.6-8.95-16.18-2.35-1.42,1.42-3.7.65-5.63-.3-2-.97-3.78-2.77-6.33-2.3-1.96,2.12-1.11,4.38-.32,6.56,1.81,5.01,3.46,10.1,5.61,14.96,7.64,17.31,9.88,36.56,19.09,53.32.76,1.39.42,3.36,1.08,4.84,1.28,2.88.05,4.19-2.4,5.4-1.87.93-3.77,1.16-5.75,1.42-24.29,3.13-48.25,8.28-72.59,11.35-25.45,3.2-50.58,8.99-75.86,13.64Zm-273.61-242.68c-.54.61-1.08,1.22-1.63,1.82,1.57,2.47,2.86,5.18,4.74,7.38,12.31,14.4,23.09,29.96,34.49,45.05,16.2,21.46,33.72,41.97,48.12,64.73,4.4,6.94,9.93,11.38,17.49,13.74,3.8,1.19,7.6,2.94,11.49,3.19,8.04.54,15.74,5.15,26.37,1.88-7.54-5.08-7.81-13.2-12.11-18.54-5.58-6.93-8.62-16.62-18.42-19.67-1.06-.33-1.96-1.53-1.44-2.12,4.6-5.18-.5-7.39-3.36-9.13-3.51-2.14-2.95-8.17-7.96-8.09-4.68.08-7.13-2.95-9.95-5.76-14.32-14.32-25.74-31.09-38.8-46.49-3.36-3.97-8.26-5.58-10.96-9.57-3.1-4.6-8.01-2.02-11.81-3.86-2.29-1.11-4.7-1.93-6.97-3.36-6.29-3.95-12.84-7.51-19.28-11.22Z"/>
  <path class="cls-3" d="m1553.94,736.01c-4.58-12.78-9.76-25.19-20.65-34.19-.96-.79-2.05-2.16-2.05-3.26,0-6.83-5.21-11.16-7.55-16.63-9.27-21.67-25.95-38.07-38.48-57.35-5.93-9.12-12.74-17.68-15.15-28.63l-.15.12c2.46-.42,3.46,1.29,4.58,3,4.86,7.41,8.72,15.47,16.65,20.62,2.79,1.81,4.19,5.86,6.03,8.99,1.97,3.36,3.95,6.66,7.32,9.22,2.06-3.56-.23-5.64-1.49-7.7-15.61-25.44-31.53-50.69-48.51-75.25-8.08-11.69-13.89-24.76-22.54-36.1-1.77-2.32-3.12-5.14-2.66-8.35,15.65,5.29,29.64,13.87,43.67,22.31,4.67,2.81,7.04,7.92,10.34,12,16.67,20.59,32.79,41.63,49.23,62.41,8.77,11.1,17.68,22.09,26.75,32.94,3.83,4.57,8.35,8.48,13.49,11.7,15.99,10.04,32.51,19.4,47.59,30.67,11.18,8.36,23.75,14.28,34.87,22.83,9.12,7.02,19.99,12.37,30.05,18.45,11.21,6.78,24.15,11.16,32.77,21.86-.29,7.61-.15,15.09.92,22.77,1.35,9.77,3.39,19.6,2.75,29.66-.23,3.66-3.39,7.34-1.43,10.62,6.29,10.54-.96,14.17-8.45,17.88-2.16,1.07-3.79,2.58-5.1,4.6-1.2,1.84-3.17,2.75-5.19,1.84-3.29-1.48-6.66-3.02-9.48-5.2-2.12-1.64-2.38-4.51,1.08-5.11,3.54-.61,6.74-1.88,8.33-4.82,3.41-6.31,5.73-13.23,11.6-17.97.58-.47.86-2.01.55-2.75-2.56-6.3-.82-13.07-2.72-19.62-3.02-10.38-5.01-21.15-6.34-31.9-.62-4.96-2.28-7.72-6.52-9.89-7.08-3.63-15.21-5.77-21.45-10.17-18.98-13.38-38.87-25.3-58.11-38.24-15.03-10.11-29.52-21.04-45.76-30.13-1.53,5.95-.71,11.59.09,16.95,2.69,17.94,5.92,35.79,9.05,53.66,1.9,10.84-5.91,25.89-15.73,27.49-5.11.84-8.26,3.58-12.02,6.05-9.68-9.53-19.37-19.04-29.04-28.58-2.08-2.05-4.6-3.28-7.11-1.6-2.27,1.52-1.39,4.23-.6,6.39,4.41,12.12,8.79,24.26,13.44,36.29,1.41,3.63,2.58,7.56,5.8,10.23q-4.93,6.69.64,12.38c1.16,1.19,2.14,2.54,3.22,3.8,17.06,19.97,34.05,39.99,51.2,59.88,14.76,17.12,29.72,34.07,44.56,51.13,17.03,19.58,33.98,39.22,51.04,58.77,19.03,21.81,38.19,43.51,57.22,65.32,26.25,30.09,52.64,60.06,78.53,90.46,9.85,11.57,20.94,22.11,28.06,36.13,3.39,6.67,7.76,13.86,14.88,18.09l-.07-.11c-.13,1.81.47,3.22,2.16,4.05l-.08-.12c.36,2.72,2.09,4.51,4.14,6.09l-.09-.14c.2,1.16.82,1.95,2.01,2.2l-.1-.13c.71,1.04,1.42,2.07,2.13,3.11l-.05-.07c.17,1.37.69,2.51,2.06,3.08l-.11-.13c.21,1.18.88,1.91,2.05,2.19l-.11-.15c.69,1.05,1.38,2.1,2.07,3.16l-.08-.08c.11,1.65,1.07,2.8,2.24,3.82,5.86,9.14,13.17,17.29,18.48,26.82,1.18,2.12,2.76,2.74,4.34.21,3.34,2.48,2.71,6.57,4.01,9.87,1.32,3.37-.49,4.83-3.21,6.04-21.71,9.63-43.52,19.03-65.03,29.09-8.66,4.05-16.98,8.83-26.11,11.87-3.23,1.07-6.35,2.34-8.83-1.3-10.22-15.08-20.32-30.29-30.96-45.02-8.7-12.05-15.1-25.55-24.64-36.97-1.03-1.23-2.19-2.88-2.21-4.35-.09-8.63-6.56-13.19-11.72-18.33-42.96-42.74-86.05-85.36-129.16-127.95-28.17-27.83-56.41-55.59-84.66-83.34-19.66-19.31-39.69-38.24-59-57.89-30.06-30.58-60.96-60.27-91.61-90.25-2.13-2.08-3.94-4.49-5.9-6.75,25.27-4.65,50.4-10.44,75.85-13.64,24.34-3.06,48.3-8.22,72.59-11.35,1.98-.26,3.88-.49,5.75-1.42,2.45-1.22,3.68-2.52,2.4-5.4-.66-1.48-.31-3.45-1.08-4.84-9.22-16.76-11.45-36-19.09-53.32-2.15-4.86-3.8-9.95-5.61-14.96-.79-2.18-1.64-4.44.32-6.56,2.55-.47,4.32,1.33,6.33,2.3,1.94.94,4.22,1.71,5.63.3,6.59-6.59,11.33-.85,16.18,2.35,6.08,4.01,10.82,9.82,17.28,13.43,2.08,1.16,3.37,3.12,3.92,5.56.67,2.95,2.76,4.42,5.67,4.83.19.19.39.38.59.57-.23-.15-.47-.31-.7-.46Zm-11.07-68.82c-.68-.69-1.36-1.38-2.04-2.07q-2.9-8.39-8.94-10.56c1.11,5.12,3.48,9.06,7.58,11.96.27,1.07.94,1.74,2.01,2.01-.16,1.75.28,3.18,2.11,3.85-.13,1.32-.17,2.78,1.32,3.21.66.19,2.1-.44,2.33-1.03.79-2.06-.64-2.83-2.42-3.17-.21-1.6-.48-3.18-1.94-4.21Zm15.17,76.73c.27.97.54,1.17.68.55.02-.08-.52-.28-.8-.43-.58-.63.83-2.64-1.3-2-.31.09.55,1.49,1.42,1.88Zm-44.1-91.84c-.07-.26-.09-.55-.23-.77-.08-.13-.33-.15-.51-.22.29.29.57.58.86.87.48.73-.87,2.92,1.45,2.02.39-.15-.56-1.6-1.58-1.9Zm13.76-7.79c.14-1.2-.65-1.75-1.58-2.1-1.32-.5-1.7.49-1.88,1.44-.22,1.17.61,1.75,1.55,2.09,1.3.47,1.62-.49,1.9-1.42Zm1.78,3.71c-1.01.29-1.71.82-1.35,1.99.29.94.79,1.84,1.98,1.63,1.02-.18,1.73-.8,1.38-1.97-.28-.96-.85-1.7-2.01-1.65Z"/>
  <path class="cls-1" d="m1865.97,1180.1c-7.12-4.23-11.5-11.42-14.88-18.09-7.12-14.02-18.21-24.55-28.06-36.13-25.88-30.4-52.28-60.37-78.53-90.46-19.03-21.81-38.19-43.51-57.22-65.32-17.06-19.55-34.01-39.19-51.04-58.77-14.84-17.06-29.8-34.01-44.56-51.13-17.15-19.89-34.14-39.91-51.2-59.88-1.08-1.26-2.06-2.62-3.22-3.8q-5.55-5.7-.64-12.38c1.12-1.03,2.24-2.05,3.36-3.08,5.34-3.57,6.42-10.26,10.71-14.61,1.72-1.29,3.08-2.83,3.44-5.04,3.76-2.47,6.91-5.22,12.02-6.05,9.82-1.6,17.63-16.65,15.73-27.49-3.13-17.87-6.35-35.73-9.05-53.66-.81-5.36-1.63-11-.09-16.95,16.25,9.1,30.74,20.03,45.76,30.13,19.24,12.94,39.13,24.86,58.11,38.24,6.24,4.4,14.37,6.54,21.45,10.17,4.24,2.17,5.9,4.93,6.52,9.89,1.34,10.74,3.32,21.51,6.34,31.9,1.9,6.54.16,13.32,2.72,19.62.3.75.03,2.29-.55,2.75-5.87,4.74-8.2,11.66-11.6,17.97-1.59,2.95-4.79,4.22-8.33,4.82-3.46.59-3.2,3.47-1.08,5.11,2.82,2.18,6.19,3.72,9.48,5.2,2.02.91,3.99,0,5.19-1.84,1.31-2.01,2.94-3.53,5.1-4.6,7.49-3.71,14.74-7.34,8.45-17.88-1.96-3.28,1.2-6.95,1.43-10.62.64-10.07-1.4-19.89-2.75-29.66-1.06-7.68-1.2-15.15-.92-22.77,1.86,1.19,4.58,1.09,5.52,3.68-.99,1.27-.78,2.13.85,2.53,1.15,3.94,2.29,7.89,3.44,11.84-3.23,5.68-2.63,11.73-.24,17.18,4.5,10.26,4.31,21.3,6.42,31.94,2.96,14.92,3.3,30.24,7.44,45.02,2.21,7.89,2.93,16.21,2.79,24.62-.14,8.88.34,18.22,3.69,26.33,3.67,8.88,5.95,18.18,9.43,27.1,5.06,12.97,9.4,26.22,16.07,38.47,3.04,5.59,5.44,11.26,6.62,17.47,1.13,5.94,3.15,11.63,6.36,16.68,6.69,10.48,9.33,22.65,14.68,33.67,1.18,2.43,1.44,4.91-1.17,7.72-4.91-5.63-9.88-10.5-13.86-16.07-13.5-18.88-27.76-37.21-41.7-55.75-13.32-17.73-27.15-35.11-40.44-52.88-2.46-3.28-3.82-5.18-.87-9.2,2.17-2.96.92-7.09-2.79-9.46-4.75-3.04-8.85-6.7-12.72-10.91-2.22-2.41-5.52-6.69-10.72-4.4,2.58,5.68,5.71,10.24,9.11,14.68,2,2.62,4.6,5.48,5.01,8.49,1.32,9.67,7.44,16.24,12.74,23.74,14.9,21.12,32.29,40.27,47.24,61.36,9.56,13.49,20.47,26.02,30.65,39.07,5.91,7.58,11.5,15.41,17.39,23.01,15.62,20.15,32.26,39.41,45.83,61.26,10.95,17.64,12.34,38.23,21.23,56.26.12.25-.06.65-.1.98Z"/>
  <path class="cls-3" d="m940.16,560.35c.02,3.66,2.14,5.33,5.5,5.88,8.82,1.45,16.46,4.37,19.7,13.96.66,1.96,2.9,3.99,4.89,4.81,10.8,4.47,18.29,12.96,26.32,20.85,4.97,4.88,9.45,10.29,15.58,13.95,1.93,1.15,3.57,3.09,4.8,5.01,1.35,2.13,3.57,4.46,1.97,7.26-1.4,2.46-4.19,1.42-6.39,1.56-14.55.91-29.12,1.62-43.55,3.91-9.83,1.55-19.04-.89-27.65-5.28-6.16-3.14-12.96-2.41-19.32-4.23-3.91-1.12-26.23,12.54-27.24,16.31-1.83,6.83-1.32,13.86-.25,20.77.35,2.25,1.62,4.36.19,8.24-23.32-18.97-44.71-39.36-67.38-59.09-2.16,2.5-1.16,5.26-1.59,7.65-3.52-1.81-4.73-5.57-6.6-8.56-9.17-14.62-18.65-29.04-28.84-42.98-.98-1.34-1.8-2.79-2.7-4.19-1.76-2.71-2.42-5.82-.61-8.45,1.84-2.67,4.72-1.06,7.33-.62,34.64,5.85,68.68,14.49,103.04,21.64,11.02,2.29,22.12,4.26,33.13,6.61,3.95.84,5.75-.4,5.78-4.32.04-5,0-9.99-.01-14.99,0-2.8.15-5.48,3.9-5.71Z"/>
  <path class="cls-2" d="m1865.97,1180.1c.04-.33.23-.73.1-.98-8.89-18.03-10.28-38.62-21.23-56.26-13.56-21.85-30.21-41.11-45.83-61.26-5.89-7.6-11.48-15.43-17.39-23.01-10.18-13.05-21.09-25.58-30.65-39.07-14.94-21.09-32.34-40.24-47.24-61.36-5.29-7.5-11.42-14.07-12.74-23.74-.41-3.01-3-5.87-5.01-8.49-3.4-4.44-6.53-9-9.11-14.68,5.2-2.29,8.5,1.99,10.72,4.4,3.87,4.21,7.96,7.87,12.72,10.91,3.71,2.37,4.96,6.5,2.79,9.46-2.95,4.02-1.58,5.91.87,9.2,13.3,17.77,27.12,35.16,40.44,52.88,13.94,18.54,28.2,36.87,41.7,55.75,3.98,5.57,8.96,10.44,13.86,16.07,2.61-2.81,2.35-5.29,1.17-7.72-5.35-11.02-7.99-23.19-14.68-33.67-3.22-5.04-5.23-10.74-6.36-16.68-1.19-6.21-3.58-11.88-6.62-17.47-6.67-12.25-11.01-25.51-16.07-38.47-3.48-8.93-5.76-18.22-9.43-27.1-3.35-8.11-3.83-17.45-3.69-26.33.14-8.41-.58-16.73-2.79-24.62-4.14-14.79-4.48-30.1-7.44-45.02-2.11-10.64-1.92-21.68-6.42-31.94-2.39-5.45-2.99-11.5.24-17.18,6.93,21.08,13.71,42.22,20.85,63.23,3.12,9.18,4.21,18.79,7.75,27.95,12.72,32.87,22.08,66.88,32.86,100.41,4.25,13.22,10.21,25.88,15.41,38.79,16.34,40.58,32.99,81.04,48.91,121.78,8.23,21.07,18.53,41.15,27.64,61.79,8.31,18.84,17.08,37.48,25.65,56.21-1.57,2.53-3.15,1.91-4.34-.21-5.31-9.53-12.61-17.68-18.48-26.82-.1-1.66-.98-2.85-2.24-3.82,0,0,.08.08.08.08-.09-1.44-.62-2.6-2.07-3.16,0,0,.11.15.11.15-.07-1.31-.7-2.08-2.05-2.19,0,0,.11.13.11.13-.04-1.46-.92-2.36-2.06-3.08,0,0,.05.07.05.07-.07-1.48-.57-2.65-2.13-3.11,0,0,.1.13.1.13,0-1.34-.67-2.08-2.01-2.2,0,0,.09.14.09.14.04-3,.03-5.96-4.14-6.09,0,0,.08.12.08.12.43-1.97-.1-3.42-2.16-4.05l.07.11Z"/>
  <path class="cls-3" d="m1386.1,491.45c-1.8,2.25-.84,4.3.38,6.4,2.67,4.59,4.84,9.54,7.99,13.78,11.91,16.04,20.05,34.32,30.84,51.03,8.47,13.12,13.67,27.94,20.04,42.14,3.66,8.16,7.82,16.14,12.37,23.84,2.71,4.58,4,9.44,5.79,14.28-3.15,1.02-4.11-.99-5.02-2.6-10.45-18.51-20.85-37.05-31.24-55.6-17.19-30.71-34.37-61.43-51.55-92.15-2.84-5.08-8.05-8.67-9.28-14.76,10.52-1.16,14.81,6.65,19.67,13.65Z"/>
  <path class="cls-3" d="m1099.97,507.96c1.15,5.99,6.21,9.4,9.67,13.68,12.33,15.26,23.46,31.43,35.71,46.73,20.16,25.17,38.74,51.51,57.91,77.42,3.05,4.12,6.57,8.05,8.11,13.02-2.56,1.65-3.7.07-4.69-1.06-9.83-11.25-19.75-22.48-28.16-34.83-10.66-15.67-23.05-29.98-34.37-45.12-15.13-20.23-31.08-39.85-46.66-59.75-1.65-2.11-3.18-4.3-5.88-5.19,1.21-4.33,4.23-5.58,8.37-4.91Z"/>
  <path class="cls-3" d="m1724.43,751.88c-1.62-.39-1.84-1.26-.85-2.53.28.84.56,1.68.85,2.53Z"/>
  <path class="cls-3" d="m1538.32,1155.7c-6.19-7.15-14.56-11.35-22.71-15.39-15.45-7.66-31.49-14.14-47.09-21.52-12.29-5.82-24.71-11.03-37.87-14.69-9.31-2.59-17.03-8.87-25.42-13.54-6.73-3.74-13.55-6.53-21.05-8.48-8.45-2.2-16.91-5.08-24.27-10.2,3.14-2.68,6.17-1.07,9.28.13,7.1,2.73,14.46,4.65,21.74,6.8,8.77,2.59,16.92,7.43,25.15,11.65,15.02,7.69,30.23,14.87,46.13,20.65,10.59,3.85,20.49,9.45,30.61,14.39,19.41,9.47,39.85,16.3,59.64,24.75,4.09,1.75,8.09,3.31,9.31,8.11,1.06,4.17,5,3.85,7.82,5.2,11.21,5.39,22.46,10.69,34.75,16.52-8.64,2.32-13.26.79-33.94-9.43-10.57-5.22-21.36-9.99-32.06-14.96Z"/>
  <path class="cls-3" d="m1243.3,1030.11c-12.76-4.69-24.91-10.75-37.2-16.5-5.15-2.41-10.21-4.8-16.02-5.12-1.6-.09-3.28-.65-4.7-1.41-15.8-8.51-32.96-13.73-49.48-20.47-8.02-3.27-15.56-7.46-23.54-10.72-3.85-1.57-4.83-4.18-4.39-7.86l.04-.05c19.73,6.58,39.01,14.29,57.99,22.78,11.65,5.21,22.82,11.86,35.19,15.02,14.21,3.63,26,12.59,39.95,16.56,1.84.52,3.5,2,2.94,4.5-.26,1.09-.51,2.17-.77,3.26Z"/>
  <path class="cls-3" d="m1661.14,1211.11c-1.21,1.17-2.54.67-3.59-.03-10.96-7.29-22.62-13.26-34.58-18.71-1.58-.72-2.93-1.86-2.56-3.74.49-2.52,2.74-2.98,4.64-2.41,14.57,4.33,29.03,8.94,36.48,24.09.08.16-.25.53-.39.8Z"/>
  <path class="cls-3" d="m1321.59,1055.8c-6.54,1.01-11.59-1.52-15.58-6.55,6.32-.48,12.16.16,15.58,6.55Z"/>
  <path class="cls-3" d="m1255.61,1035.32c1.4-1.45,2.79-2.91,4.2-4.37,1.62.06,3.22.16,3.98,1.94-.42,2.02-.83,4.05-1.25,6.08-2.88-.15-5.34-1.08-6.93-3.66Z"/>
  <path class="cls-3" d="m1107.97,968.03c-3.57.46-6.67-.01-7.97-4.04v.02c3.2.23,6.08,1.13,8,3.97,0,0-.04.05-.04.05Z"/>
  <path class="cls-3" d="m1296.77,1046.59c-2.66,1.6-4.32,1.18-4.48-2.23,2.37-1.01,3.67.13,4.48,2.23Z"/>
  <path class="cls-3" d="m1353.83,1069.63c-1.77.74-3.11.36-3.92-1.46,2.39-2.43,3.47-1.35,3.92,1.46Z"/>
  <path class="cls-3" d="m1100.01,963.99c-.83-.15-1.65-.3-2.48-.46.2-.35.4-.71.6-1.06.62.51,1.25,1.02,1.87,1.53,0,0,.01-.02.01-.02Z"/>
  <path class="cls-3" d="m1094.3,575.92c6.44,3.71,12.99,7.27,19.28,11.22,2.27,1.43,4.68,2.25,6.97,3.36,3.8,1.84,8.71-.74,11.81,3.86,2.7,3.99,7.6,5.6,10.96,9.57,13.06,15.39,24.48,32.16,38.8,46.49,2.82,2.82,5.27,5.84,9.95,5.76,5.02-.08,4.46,5.95,7.96,8.09,2.86,1.74,7.96,3.95,3.36,9.13-.53.59.37,1.79,1.44,2.12,9.8,3.05,12.84,12.74,18.42,19.67,4.29,5.33,4.56,13.46,12.11,18.54-10.63,3.26-18.33-1.35-26.37-1.88-3.88-.26-7.68-2.01-11.49-3.19-7.56-2.36-13.09-6.8-17.49-13.74-14.4-22.76-31.92-43.27-48.12-64.73-11.4-15.09-22.18-30.65-34.49-45.05-1.88-2.2-3.17-4.91-4.74-7.38.54-.61,1.08-1.22,1.63-1.82Z"/>
  <path class="cls-3" d="m1470.06,595.95c-1.44-.28-2.09-1.13-1.72-2.58.06-.22.63-.55.75-.47,1.26.78,1.25,1.93.82,3.18,0,0,.15-.12.15-.12Z"/>
  <path class="cls-2" d="m1554.13,761.4c-.36,2.22-1.72,3.75-3.44,5.04-5.12-3.23-8.53-8.27-13-12.18-1.74-1.52-3.57-3.47-6.08-2.04-3.05,1.74-2.03,4.61-1.06,7.03,2.93,7.36,5.49,14.89,9.44,21.81-1.12,1.03-2.24,2.05-3.36,3.08-3.23-2.67-4.4-6.6-5.8-10.23-4.65-12.03-9.03-24.17-13.44-36.29-.79-2.17-1.67-4.87.6-6.39,2.51-1.68,5.03-.45,7.11,1.6,9.67,9.54,19.36,19.06,29.04,28.58Z"/>
  <path class="cls-2" d="m1539.47,666.52c-4.09-2.9-6.46-6.85-7.57-11.97q6.04,2.17,8.94,10.56c-.45.47-.91.94-1.37,1.41Z"/>
  <path class="cls-1" d="m1867.99,1183.92c4.17.13,4.18,3.09,4.14,6.09-2.05-1.57-3.78-3.37-4.14-6.09Z"/>
  <path class="cls-2" d="m1527.71,644.29c-.29.93-.61,1.9-1.91,1.43-.95-.34-1.78-.92-1.55-2.09.18-.95.56-1.93,1.88-1.44.94.35,1.72.9,1.59,2.1Z"/>
  <path class="cls-2" d="m1529.48,648.01c1.16-.05,1.73.69,2.01,1.65.35,1.17-.36,1.79-1.38,1.97-1.19.21-1.69-.69-1.98-1.63-.36-1.16.34-1.7,1.34-1.98Z"/>
  <path class="cls-2" d="m1544.83,671.38c1.76.35,3.19,1.12,2.4,3.18-.23.59-1.67,1.22-2.33,1.03-1.49-.42-1.45-1.89-1.32-3.21.4-.36.81-.69,1.24-1Z"/>
  <path class="cls-2" d="m1513.95,652.08c1.01.3,1.97,1.75,1.58,1.9-2.32.9-.97-1.29-1.45-2.02l-.13.12Z"/>
  <path class="cls-2" d="m1558.04,743.92c-.87-.39-1.73-1.79-1.42-1.88,2.13-.65.73,1.37,1.3,2l.12-.12Z"/>
  <path class="cls-2" d="m1542.89,667.17c1.44,1.04,1.71,2.62,1.93,4.22-.43.3-.84.63-1.23.99-1.83-.67-2.27-2.09-2.11-3.85.46-.46.93-.91,1.41-1.36Z"/>
  <path class="cls-1" d="m1865.9,1179.99c2.07.63,2.59,2.09,2.16,4.05-1.7-.83-2.3-2.25-2.16-4.05Z"/>
  <path class="cls-2" d="m1514.07,651.96c-.29-.29-.57-.58-.86-.87.18.07.43.09.51.22.13.22.16.51.23.77,0,0,.13-.12.13-.12Z"/>
  <path class="cls-2" d="m1557.93,744.03c.28.15.82.35.8.43-.14.62-.41.43-.68-.55,0,0-.12.12-.12.12Z"/>
  <path class="cls-2" d="m1553.94,736.01c.23.15.47.31.7.46-.2-.19-.39-.38-.59-.57,0,0-.12.11-.12.11Z"/>
  <path class="cls-2" d="m1540.84,665.12c.68.69,1.36,1.38,2.04,2.06-.47.44-.94.89-1.4,1.35-1.07-.27-1.74-.95-2.01-2.01.46-.46.92-.93,1.37-1.4Z"/>
  <path class="cls-1" d="m1873.94,1191.94c1.56.45,2.06,1.63,2.13,3.11-.71-1.03-1.42-2.07-2.13-3.11Z"/>
  <path class="cls-1" d="m1876.02,1194.97c1.14.72,2.02,1.62,2.06,3.08-1.37-.57-1.88-1.71-2.06-3.08Z"/>
  <path class="cls-1" d="m1877.97,1197.92c1.34.11,1.98.88,2.05,2.19-1.17-.27-1.84-1.01-2.05-2.19Z"/>
  <path class="cls-1" d="m1879.9,1199.95c1.45.55,1.97,1.71,2.07,3.16-.69-1.05-1.38-2.1-2.07-3.16Z"/>
  <path class="cls-1" d="m1881.89,1203.03c1.26.97,2.14,2.16,2.24,3.82-1.17-1.02-2.13-2.17-2.24-3.82Z"/>
  <path class="cls-1" d="m1872.04,1189.87c1.34.12,2,.86,2.01,2.2-1.2-.25-1.81-1.03-2.01-2.2Z"/>
  <path class="cls-3" d="m1539.98,781.06c-3.95-6.92-6.51-14.45-9.44-21.81-.96-2.42-1.99-5.29,1.06-7.03,2.51-1.43,4.33.52,6.08,2.04,4.47,3.91,7.88,8.96,13,12.18-4.28,4.35-5.36,11.04-10.7,14.61Z"/>
</svg>